# xmcd
#
# Track frame offsets: 
#        150
#        24697
#        48480
#        67025
#        91550
#        115752
#        145842
#        166065
#        182717
#        202697
#        217415
#
# Disc length: 3126 seconds
#
# Revision: 5
# Processed by: cddbd v1.5.2PL0 Copyright (c) Steve Scherf et al.
# Submitted via: ExactAudioCopy v0.99pb4
#
DISCID=960c340b
DTITLE=Danger Danger - The Return Of The Gildersleeves
DYEAR=2000
DGENRE=Rock
TTITLE0=Grind
TTITLE1=When She's Good She's Good
TTITLE2=Six Million Dollar Man
TTITLE3=She's Gone
TTITLE4=Dead Drunk and Wasted
TTITLE5=Dead Dog
TTITLE6=I Do
TTITLE7=My Secret
TTITLE8=Cherry Cherry
TTITLE9=Get In The Ring
TTITLE10=Walk It Like Ya Talk It
EXTD=YEAR: 2000
EXTT0=
EXTT1=
EXTT2=
EXTT3=
EXTT4=
EXTT5=
EXTT6=
EXTT7=
EXTT8=
EXTT9=
EXTT10=
PLAYORDER=
